# xmcd
#
# Track frame offsets: 
#        150
#        21282
#        37607
#        63355
#        83620
#        123035
#        136325
#        157587
#        175232
#        196807
#        212767
#        232265
#        343045
#
# Disc length: 4795 seconds
#
# Revision: 4
# Processed by: cddbd v1.5.2PL0 Copyright (c) Steve Scherf et al.
# Submitted via: ExactAudioCopy v1.0b6
#
DISCID=a012b90d
DTITLE=PE'Z - 極月 -KIWAMARI ZUKI-
DYEAR=2003
DGENRE=Jazz
TTITLE0=花咲クDON BLA GO! (Album Ver.)
TTITLE1=タンゴ3兄妹
TTITLE2=WONDERFUL DAYS
TTITLE3=She's a rainbow
TTITLE4=SUNNY and CLOUDY
TTITLE5=アンダルシア -Andalucia-
TTITLE6=T.K.O 〜それ ちょっと早くない?〜
TTITLE7=かもめが翔んだ日
TTITLE8=C止まり 〜SADだけどね〜
TTITLE9=DRY!DRY?DRY! (Album Ver.)
TTITLE10=BIG EAR 〜手痛い洗礼そしてVへ〜
TTITLE11=大地讃頌
TTITLE12=データ
EXTD=YEAR: 2003
EXTT0=
EXTT1=
EXTT2=
EXTT3=
EXTT4=
EXTT5=
EXTT6=
EXTT7=
EXTT8=
EXTT9=
EXTT10=
EXTT11=
EXTT12=
PLAYORDER=
